<svg width="101" height="101" viewBox="0 0 101 101" fill="none" xmlns="http://www.w3.org/2000/svg">
<path d="M77.15 58.79C77.15 73.39 65.31 85.23 50.71 85.23C36.11 85.23 24.27 73.39 24.27 58.79C24.27 40.41 50.71 15.23 50.71 15.23C50.71 15.23 77.15 40.41 77.15 58.79Z" fill="#1DA2D6"/>
<path d="M50.71 15.23C50.71 15.23 48.44 17.4 45.24 20.91C52.35 28.38 68.34 46.79 68.34 61.09C68.34 71.77 62.01 80.96 52.89 85.13C66.47 84.02 77.14 72.65 77.14 58.79C77.15 40.41 50.71 15.23 50.71 15.23Z" fill="#39C1EA"/>
<path d="M77.15 58.79H75.15C75.15 65.54 72.42 71.64 67.99 76.07C63.56 80.5 57.46 83.23 50.71 83.23C43.96 83.23 37.86 80.5 33.43 76.07C29 71.64 26.27 65.54 26.27 58.79C26.26 54.68 27.79 49.8999 30.19 45.1199C33.78 37.9499 39.27 30.7799 43.86 25.4699C46.15 22.8099 48.22 20.5999 49.71 19.0599C50.45 18.2899 51.05 17.6899 51.47 17.2799C51.68 17.0799 51.83 16.92 51.94 16.82L52.06 16.7L52.1 16.66L50.72 15.2099L49.34 16.66L49.41 16.7199C50.14 17.4199 56.67 23.7899 62.97 32.1099C66.12 36.2699 69.2 40.9199 71.47 45.5499C73.75 50.1799 75.18 54.7799 75.17 58.7699H77.15H79.15C79.14 53.6899 77.36 48.4199 74.81 43.3099C70.97 35.6499 65.3 28.3099 60.6 22.8399C55.89 17.3699 52.13 13.79 52.1 13.76C51.33 13.02 50.11 13.02 49.34 13.76C49.3 13.8 42.63 20.15 35.91 28.88C32.55 33.25 29.18 38.21 26.62 43.32C24.07 48.43 22.29 53.6999 22.28 58.7799C22.28 74.4899 35.01 87.2199 50.72 87.2199C66.43 87.2199 79.16 74.4899 79.16 58.7799H77.15V58.79Z" fill="#1E3D70"/>
<path d="M50.71 74.3199C46.32 74.3199 42.36 72.55 39.48 69.67C36.6 66.79 34.83 62.8299 34.83 58.4399C34.83 57.3399 33.93 56.4399 32.83 56.4399C31.73 56.4399 30.83 57.3399 30.83 58.4399C30.83 69.4199 39.73 78.3199 50.71 78.3199C51.81 78.3199 52.71 77.4199 52.71 76.3199C52.71 75.2199 51.82 74.3199 50.71 74.3199Z" fill="#1E3D70"/>
</svg>
