<svg width="49" height="46" viewBox="0 0 49 46" fill="none" xmlns="http://www.w3.org/2000/svg">
<path d="M15.976 22.0093H12.3233C9.43981 22.0093 7.10303 19.8097 7.10303 17.0955V10.2191H21.1914V17.0955C21.1963 19.8097 18.8595 22.0093 15.976 22.0093Z" fill="#1DA2D6"/>
<path d="M18.4144 10.2191V17.0955C18.4144 19.8097 16.0776 22.0093 13.1942 22.0093H15.9712C18.8547 22.0093 21.1915 19.8097 21.1915 17.0955V10.2191H18.4144Z" fill="#39C1EA"/>
<path d="M16.4647 22.0093V25.1971H11.8347V22.0093" fill="#1DA2D6"/>
<path d="M16.4646 22.0093V25.1971H14.1859V22.0093" fill="#39C1EA"/>
<path d="M42.866 21.0849C42.866 27.5151 38.9907 32.7294 34.2058 32.7294C29.421 32.7294 25.5457 27.5151 25.5457 21.0849C25.5457 14.6547 30.9643 8.66165 34.2058 8.66165C37.2586 8.66165 42.866 14.6547 42.866 21.0849Z" fill="#3ACE5A"/>
<path d="M34.2107 8.66165C33.6446 8.66165 33.0157 8.84837 32.3625 9.18081C35.4492 10.6199 39.4745 15.7522 39.4745 21.1987C39.4745 26.7455 36.591 31.3814 32.7302 32.5563C33.2141 32.6702 33.7075 32.7294 34.2107 32.7294C38.9955 32.7294 42.8708 27.5151 42.8708 21.0849C42.866 14.6547 37.2587 8.66165 34.2107 8.66165Z" fill="#3CE55C"/>
<path d="M42.8659 21.0849H41.8983C41.8983 24.1269 40.9742 26.8684 39.5373 28.7947C38.8213 29.7602 37.9795 30.5207 37.0748 31.0353C36.1701 31.5499 35.2121 31.8186 34.2058 31.8186C33.1995 31.8186 32.2415 31.5453 31.3368 31.0353C29.9822 30.2657 28.7678 28.9359 27.9018 27.2054C27.0358 25.4795 26.5133 23.3664 26.5133 21.0849C26.5084 18.1111 27.7857 15.1602 29.4451 12.9925C30.2725 11.9086 31.1917 11.0252 32.0529 10.4331C32.4835 10.1371 32.8995 9.91399 33.2672 9.77282C33.6349 9.63164 33.9591 9.56789 34.2058 9.57244C34.4187 9.57244 34.7186 9.62709 35.0767 9.77282C35.7056 10.0187 36.4797 10.5197 37.2538 11.221C38.4197 12.2729 39.6002 13.7667 40.4662 15.4835C41.3371 17.2004 41.8983 19.1403 41.8983 21.0849H42.8659H43.8335C43.8287 17.6148 42.3434 14.3587 40.4614 11.9269C39.518 10.711 38.473 9.69997 37.4183 8.96678C36.8909 8.60247 36.3587 8.30644 35.8265 8.0924C35.2944 7.88292 34.7525 7.75085 34.2058 7.75085C33.6397 7.75085 33.0834 7.87836 32.5367 8.08784C31.5787 8.45671 30.6353 9.08518 29.7306 9.90034C28.3711 11.1254 27.0987 12.783 26.1504 14.7048C25.2022 16.6265 24.5781 18.8124 24.5781 21.0803C24.5781 24.4685 25.5941 27.5515 27.2874 29.8376C28.1389 30.9806 29.1645 31.9233 30.3305 32.5928C31.4965 33.2576 32.8173 33.6402 34.201 33.6402C35.5846 33.6402 36.9054 33.2576 38.0714 32.5928C39.8276 31.5909 41.2548 29.9697 42.2563 27.9841C43.2578 25.994 43.8287 23.626 43.8287 21.0849H42.8659Z" fill="#1E3D70"/>
<path d="M34.9896 27.9978L43.4175 20.0238L42.0483 18.7395L33.6204 26.709" fill="#1E3D70"/>
<path d="M34.9896 19.9054L41.0904 14.1218L39.7164 12.8422L33.6156 18.6211" fill="#1E3D70"/>
<path d="M34.9896 26.7136L26.402 18.5665L25.028 19.8508L33.6156 27.9932" fill="#1E3D70"/>
<path d="M34.9943 18.6212L28.7436 12.6873L27.3696 13.967L33.6155 19.9054" fill="#1E3D70"/>
<path d="M15.976 22.0093V21.0985H12.3233C11.1476 21.0985 10.0881 20.6522 9.31884 19.9281C8.54959 19.1995 8.07547 18.2067 8.07547 17.1001V11.1344H20.2287V17.0956C20.2287 18.2022 19.7545 19.1995 18.9853 19.9236C18.2112 20.6477 17.1565 21.094 15.9809 21.094V22.0093V22.9201C19.3965 22.9201 22.1687 20.3152 22.1687 17.0956V10.2191C22.1687 9.97772 22.0671 9.74545 21.8833 9.57696C21.7043 9.40846 21.4527 9.30829 21.2011 9.30829H7.11269C6.85627 9.30829 6.60953 9.40391 6.43052 9.57696C6.25152 9.75001 6.14508 9.98228 6.14508 10.2191V17.0956C6.14508 20.3107 8.91245 22.9201 12.333 22.9201H15.9857V22.0093H15.976Z" fill="#1E3D70"/>
<path d="M11.2734 10.2191V6.32541C11.2734 5.82447 10.838 5.41461 10.3058 5.41461C9.77362 5.41461 9.3382 5.82447 9.3382 6.32541V10.2191C9.3382 10.72 9.77362 11.1299 10.3058 11.1299C10.838 11.1299 11.2734 10.7246 11.2734 10.2191Z" fill="#1E3D70"/>
<path d="M18.966 10.2191V6.32541C18.966 5.82447 18.5306 5.41461 17.9984 5.41461C17.4662 5.41461 17.0308 5.82447 17.0308 6.32541V10.2191C17.0308 10.72 17.4662 11.1299 17.9984 11.1299C18.5306 11.1299 18.966 10.7246 18.966 10.2191Z" fill="#1E3D70"/>
<path d="M15.4971 22.0093V24.2863H12.8023V22.0093H10.8671V25.1971C10.8671 25.4384 10.9687 25.6707 11.1525 25.8392C11.3315 26.0077 11.5831 26.1079 11.8347 26.1079H16.4647C16.7211 26.1079 16.9679 26.0123 17.1469 25.8392C17.3259 25.6662 17.4323 25.4339 17.4323 25.1971V22.0093H15.4971Z" fill="#1E3D70"/>
<path d="M13.7892 12.6281L11.8249 15.6383C11.6411 15.9206 11.6314 16.2713 11.8056 16.5582C11.9798 16.8451 12.2991 17.0227 12.6522 17.0227H13.9295L12.87 18.6439C12.5894 19.072 12.7345 19.6321 13.1893 19.8963C13.644 20.1604 14.2391 20.0238 14.5197 19.5957L16.484 16.5855C16.6678 16.3032 16.6775 15.9525 16.5033 15.6656C16.334 15.3787 16.0099 15.2011 15.6567 15.2011H14.3794L15.439 13.5799C15.7196 13.1518 15.5744 12.5917 15.1197 12.3276C14.6649 12.0634 14.065 12.2001 13.7892 12.6281Z" fill="#1E3D70"/>
<path d="M5.70479 11.1299H22.5944C23.1266 11.1299 23.5621 10.72 23.5621 10.2191C23.5621 9.71815 23.1266 9.30829 22.5944 9.30829H5.70479C5.17261 9.30829 4.73718 9.71815 4.73718 10.2191C4.73718 10.7246 5.17261 11.1299 5.70479 11.1299Z" fill="#1E3D70"/>
<path d="M13.1216 25.4248V27.0323C13.1216 28.7856 14.6311 30.2019 16.4889 30.2019H18.7192C19.1159 30.2019 19.4691 30.3522 19.7304 30.5981C19.9916 30.844 20.1513 31.1764 20.1513 31.5499C20.1513 31.9233 19.9916 32.2557 19.7304 32.5017C19.4691 32.7476 19.1159 32.8978 18.7192 32.8978H11.3363C9.47369 32.8978 7.96906 34.3187 7.96906 36.0674V36.9554C7.96906 38.7087 9.47852 40.125 11.3363 40.125H31.9029C33.7656 40.125 35.2702 38.7041 35.2702 36.9554V8.69806C35.2702 8.19712 34.8348 7.78726 34.3026 7.78726C33.7704 7.78726 33.335 8.19712 33.335 8.69806V36.9554C33.335 37.3288 33.1753 37.6613 32.9141 37.9072C32.6528 38.1531 32.2996 38.3034 31.9029 38.3034H11.3363C10.9396 38.3034 10.5864 38.1531 10.3252 37.9072C10.0639 37.6613 9.90428 37.3288 9.90428 36.9554V36.0674C9.90428 35.694 10.0639 35.3615 10.3252 35.1156C10.5864 34.8697 10.9396 34.7194 11.3363 34.7194H18.7192C20.577 34.7194 22.0865 33.2986 22.0865 31.5499C22.0865 29.8011 20.577 28.3803 18.7192 28.3803H16.4889C16.0921 28.3803 15.739 28.23 15.4777 27.9841C15.2165 27.7382 15.0568 27.4058 15.0568 27.0323V25.4248C15.0568 24.9238 14.6214 24.514 14.0892 24.514C13.557 24.514 13.1216 24.9238 13.1216 25.4248Z" fill="#1E3D70"/>
</svg>
