<svg width="74" height="69" viewBox="0 0 74 69" fill="none" xmlns="http://www.w3.org/2000/svg">
<path d="M36.4877 38.495L21.0803 38.481L39.4468 14.0856L37.4741 30.3585L52.8881 30.3725L34.515 54.7679L36.4877 38.495Z" fill="#FAB627"/>
<path d="M34.3115 40.2445L35.3263 32.0201L51.2226 32.0378L32.282 56.6932L34.3115 40.2445Z" fill="#FFCD7D"/>
<path d="M36.4899 38.4885L36.6302 37.328L23.5234 37.3155L37.5791 18.5968L36.1566 30.364C36.1194 30.6715 36.2218 30.9675 36.4457 31.1825C36.6631 31.3974 36.9896 31.5254 37.3316 31.5257L50.4384 31.5382L36.3827 50.2568L37.8052 38.4897C37.8424 38.1822 37.74 37.8862 37.5161 37.6712C37.2987 37.4563 36.9722 37.3283 36.6302 37.328L36.4899 38.4885L35.1746 38.4872L33.2107 54.7337C33.1469 55.2617 33.4985 55.7263 34.0611 55.8603C34.6237 55.9943 35.2633 55.7628 35.6081 55.3047L53.8968 30.9496C54.1639 30.5901 54.2106 30.1491 54.0233 29.7949C53.8293 29.4408 53.4219 29.2199 52.9616 29.2194L38.934 29.206L40.7577 14.12C40.8215 13.592 40.4699 13.1274 39.9073 12.9934C39.3447 12.8594 38.705 13.0909 38.3603 13.549L20.0715 37.9041C19.8045 38.2636 19.7577 38.7046 19.9451 39.0588C20.1325 39.4129 20.5465 39.6338 21.0068 39.6343L36.3496 39.6489L36.4899 38.4885L35.1746 38.4872L36.4899 38.4885Z" fill="#1E3D70"/>
</svg>
