<svg width="101" height="101" viewBox="0 0 101 101" fill="none" xmlns="http://www.w3.org/2000/svg">
<path d="M71.14 48.67C71.14 65.24 61.74 78.67 50.14 78.67C38.54 78.67 29.14 65.24 29.14 48.67C29.14 32.1 42.28 16.67 50.14 16.67C57.54 16.67 71.14 32.11 71.14 48.67Z" fill="#3ACE5A"/>
<path d="M50.14 16.67V20.84C56.53 26.53 62.91 37.34 62.91 48.67C62.91 61.06 57.65 71.7001 50.14 76.2701V78.67C61.74 78.67 71.14 65.24 71.14 48.67C71.14 32.11 57.54 16.67 50.14 16.67Z" fill="#3CE55C"/>
<path d="M71.14 48.6699H69.14C69.14 56.5799 66.88 63.6999 63.35 68.7399C61.59 71.2599 59.51 73.2499 57.28 74.5999C55.04 75.9499 52.65 76.6699 50.14 76.6699C47.63 76.6699 45.24 75.9499 43 74.5999C39.65 72.5799 36.66 69.0899 34.53 64.5899C32.4 60.0899 31.13 54.5999 31.14 48.6699C31.13 40.9199 34.25 33.2599 38.32 27.6299C40.34 24.8099 42.6 22.5099 44.73 20.9599C45.79 20.1799 46.82 19.5999 47.75 19.2199C48.68 18.8399 49.5 18.6699 50.15 18.6699C50.72 18.6699 51.5 18.8299 52.4 19.2099C53.97 19.8699 55.88 21.1799 57.79 23.0099C60.66 25.7499 63.53 29.6299 65.65 34.0999C67.78 38.5699 69.15 43.5999 69.15 48.6799H71.14H73.14C73.13 39.8399 69.55 31.4999 65.03 25.2899C62.76 22.1799 60.25 19.5999 57.73 17.7399C56.47 16.8099 55.21 16.0599 53.94 15.5299C52.68 14.9999 51.41 14.6799 50.14 14.6799C48.83 14.6799 47.52 14.9999 46.22 15.5199C43.95 16.4499 41.7 18.0399 39.52 20.1199C36.26 23.2399 33.2 27.4799 30.91 32.3899C28.63 37.2999 27.13 42.8799 27.13 48.6699C27.13 57.3299 29.57 65.2099 33.64 71.0299C35.68 73.9399 38.13 76.3399 40.92 78.0199C43.71 79.7099 46.84 80.6699 50.13 80.6699C53.42 80.6699 56.55 79.7099 59.34 78.0199C63.52 75.4899 66.95 71.3699 69.35 66.2899C71.75 61.2099 73.13 55.1599 73.13 48.6599H71.14V48.6699Z" fill="#1E3D70"/>
<path d="M48.14 17.14V89.56C48.14 90.66 49.04 91.56 50.14 91.56C51.24 91.56 52.14 90.66 52.14 89.56V17.14C52.14 16.04 51.24 15.14 50.14 15.14C49.04 15.14 48.14 16.03 48.14 17.14Z" fill="#1E3D70"/>
<path d="M51.55 66.27L72.23 45.69L69.41 42.86L48.73 63.43" fill="#1E3D70"/>
<path d="M51.55 45.4L66.57 30.51L63.75 27.67L48.74 42.56" fill="#1E3D70"/>
<path d="M51.57 63.45L30.94 42.41L28.08 45.21L48.72 66.25" fill="#1E3D70"/>
<path d="M51.58 42.59L36.65 27.28L33.78 30.07L48.71 45.38" fill="#1E3D70"/>
</svg>
